<svg width="19" height="21" viewBox="0 0 19 21" fill="none" xmlns="http://www.w3.org/2000/svg">
<path d="M17.7122 10.6664C17.2733 9.93031 16.5253 9.4829 15.7082 9.47277C14.9771 9.45926 14.3001 9.79862 13.8375 10.3828L13.8358 10.3811C13.5133 10.3169 13.1892 10.2511 12.8684 10.1903C12.8329 9.98434 12.7874 9.76316 12.6928 9.54537C12.5898 9.30563 12.4632 9.08277 12.3399 8.86835L14.2309 6.1974C14.5956 6.28182 14.945 6.29533 15.2895 6.2413C16.5743 6.03363 17.4944 5.04596 17.6346 3.72568C17.7629 2.52697 17.0082 1.34007 15.8483 0.906166C15.7115 0.853827 15.5748 0.816684 15.4549 0.784606C15.4076 0.771099 15.3604 0.759281 15.3148 0.745774L15.2337 0.722137H14.4537L14.3558 0.759281C14.3423 0.762657 14.3305 0.767722 14.3136 0.776164C13.3631 0.973699 12.5983 1.62708 12.264 2.53203C11.9584 3.35425 12.0614 4.25244 12.5307 4.98687C12.1221 5.5609 11.7153 6.13494 11.3067 6.71066L10.6921 7.57846C9.52887 7.18001 8.41963 7.35054 7.44378 8.08158L5.06998 6.23792C5.13751 5.95091 5.14764 5.65038 5.10037 5.33973C4.92141 4.13764 3.84087 3.29178 2.59151 3.37789C1.42318 3.45386 0.462517 4.47193 0.44901 5.64532C0.437192 6.53 0.822132 7.23911 1.55993 7.69496C2.25553 8.12548 3.00346 8.17613 3.7362 7.84522C4.45711 8.40743 5.35362 9.1064 6.26701 9.80875C6.01713 10.6462 6.0796 11.4515 6.45441 12.2079C6.57766 12.4561 6.72792 12.6789 6.8765 12.8933L6.7887 13.0166C6.36831 13.6109 5.94116 14.2153 5.52414 14.8079C5.31479 14.7454 5.09699 14.688 4.86063 14.6678C4.00464 14.5969 3.20099 14.8754 2.59826 15.4528C1.98708 16.037 1.65448 16.8525 1.68656 17.6916C1.71864 18.5324 2.13059 19.3242 2.81605 19.8628C3.48632 20.3895 4.3288 20.6006 5.12907 20.4385C6.11337 20.241 6.92377 19.5859 7.2952 18.6877C7.63625 17.8672 7.57378 16.9335 7.13481 16.1417C7.67677 15.3819 8.16469 14.6931 8.61379 14.0498C9.17263 14.2119 9.73991 14.2237 10.3021 14.0836C10.8728 14.9345 11.489 15.8445 12.1779 16.8542C11.7946 17.4822 11.7136 18.2015 11.9415 18.9494C12.2707 20.0215 13.282 20.7221 14.3879 20.7221C14.5871 20.7221 14.788 20.7002 14.9889 20.6529C16.2586 20.3524 17.1044 19.1064 16.912 17.8148C16.7971 17.05 16.3666 16.3814 15.7284 15.983C15.1814 15.6419 14.523 15.5254 13.8831 15.6521C13.4897 15.0696 13.0946 14.4854 12.6996 13.903L12.0918 13.0014C12.2876 12.7752 12.4514 12.527 12.5848 12.2619C12.627 12.2703 12.6675 12.2805 12.7097 12.2889C12.9376 12.3362 13.174 12.3868 13.4154 12.4223C13.4272 12.4645 13.439 12.4983 13.4509 12.5253C13.4526 12.532 13.4559 12.5371 13.4576 12.5422C13.8189 13.6463 14.9569 14.3166 16.1201 14.1056C16.8512 13.9722 17.4792 13.4707 17.8 12.7667C18.1157 12.0762 18.082 11.2911 17.7122 10.6664ZM14.837 11.8111C14.8387 11.3451 15.2118 10.9754 15.6778 10.9754C16.1454 10.9771 16.5135 11.3485 16.5135 11.8145C16.5118 12.2822 16.1404 12.6519 15.6744 12.6502C15.2067 12.6485 14.8353 12.2754 14.837 11.8111ZM15.4465 18.1829C15.4414 18.7654 14.9585 19.2381 14.3727 19.233C13.7784 19.2263 13.3006 18.74 13.309 18.1491C13.3192 17.5683 13.8122 17.0855 14.3862 17.0956C14.9822 17.1057 15.4515 17.5869 15.4465 18.1829ZM4.60231 18.9713C3.81724 18.9646 3.19255 18.3331 3.19931 17.5514C3.20437 16.7714 3.84256 16.1468 4.62595 16.1569C5.3992 16.1653 6.02895 16.8001 6.02389 17.565C6.01713 18.3433 5.37557 18.9764 4.60231 18.9713ZM7.61261 10.766C7.6143 9.73446 8.48548 8.86497 9.52211 8.86159C10.5638 8.85653 11.4384 9.73277 11.4367 10.7762C11.435 11.8162 10.5723 12.6755 9.53056 12.6755C8.4821 12.6772 7.61261 11.8111 7.61261 10.766ZM14.8589 2.22982C15.5528 2.22982 16.1336 2.80723 16.1336 3.50113C16.1336 4.19673 15.5579 4.77076 14.8589 4.77076C14.1566 4.77076 13.5876 4.20179 13.5893 3.50113C13.591 2.79879 14.16 2.22982 14.8589 2.22982ZM2.78398 6.55533C2.32137 6.54858 1.94656 6.16533 1.94994 5.7061C1.955 5.24518 2.33488 4.87206 2.80086 4.87544C3.26177 4.87713 3.64334 5.26544 3.63321 5.72298C3.62477 6.18559 3.23983 6.56208 2.78398 6.55533Z" fill="#72C7A7"/>
</svg>
