<svg width="24" height="21" viewBox="0 0 24 21" fill="none" xmlns="http://www.w3.org/2000/svg">
<path d="M9.96544 4.48257H6.51544C4.83528 4.48257 3.9952 4.48257 3.35347 4.80955C2.78898 5.09717 2.33004 5.55611 2.04242 6.1206C1.71544 6.76233 1.71544 7.60241 1.71544 9.28257L1.71544 10.4826C1.71544 11.4145 1.71544 11.8804 1.86768 12.2479C2.07067 12.738 2.46002 13.1273 2.95007 13.3303C3.31761 13.4826 3.78356 13.4826 4.71544 13.4826V17.7326C4.71544 17.9647 4.71544 18.0808 4.72507 18.1786C4.8186 19.1282 5.56985 19.8794 6.51941 19.9729C6.61719 19.9826 6.73327 19.9826 6.96544 19.9826C7.19761 19.9826 7.3137 19.9826 7.41148 19.9729C8.36103 19.8794 9.11229 19.1282 9.20581 18.1786C9.21544 18.0808 9.21544 17.9647 9.21544 17.7326V13.4826H9.96544C11.7319 13.4826 13.8927 14.4295 15.5597 15.3382C16.5323 15.8684 17.0185 16.1334 17.337 16.0944C17.6323 16.0583 17.8556 15.9257 18.0288 15.6837C18.2154 15.4227 18.2154 14.9006 18.2154 13.8563V4.10885C18.2154 3.06456 18.2154 2.54242 18.0288 2.28146C17.8556 2.03947 17.6323 1.90687 17.337 1.8707C17.0185 1.83169 16.5323 2.09677 15.5597 2.62692C13.8927 3.53568 11.7319 4.48257 9.96544 4.48257Z" stroke="#D04B9B" stroke-width="2" stroke-linecap="round" stroke-linejoin="round"/>
<path d="M21.7485 11.9678C22.3709 11.2626 22.7485 10.3364 22.7485 9.32194C22.7485 8.30749 22.3709 7.38125 21.7485 6.67612" stroke="#D04B9B" stroke-width="2" stroke-linecap="round" stroke-linejoin="round"/>
</svg>
