<svg width="23" height="23" viewBox="0 0 23 23" fill="none" xmlns="http://www.w3.org/2000/svg">
<path d="M11.2319 21.2991C16.7548 21.2991 21.2319 16.822 21.2319 11.2991C21.2319 5.77629 16.7548 1.29913 11.2319 1.29913C5.7091 1.29913 1.23195 5.77629 1.23195 11.2991C1.23195 16.822 5.7091 21.2991 11.2319 21.2991Z" stroke="#FF7F7F" stroke-width="2" stroke-linecap="round" stroke-linejoin="round"/>
<path d="M16.0887 13.389L16.0842 13.3706C15.8681 12.5766 14.997 12.098 14.1427 12.3043C13.3391 12.4977 12.8124 13.2929 12.9666 14.075C13.0803 14.6476 13.4449 15.0517 14.0279 15.257C13.7218 15.7766 13.0454 16.1483 12.441 16.091C11.5608 16.0067 10.8439 15.2494 10.8439 14.4024L10.8428 11.5211H11.5507C12.0887 11.5211 12.6278 11.5211 13.1658 11.5211C13.7398 11.52 14.1574 11.1429 14.1585 10.6233C14.1585 10.3597 14.0583 10.1242 13.8749 9.95887C13.6936 9.79573 13.4472 9.70931 13.1624 9.70931C12.6751 9.70823 12.1877 9.70931 11.7004 9.70931H10.8439V9.20802C10.8439 8.67972 10.845 8.15251 10.8428 7.62421C10.8417 7.46756 10.8383 7.2839 10.8079 7.10024C10.6278 6.02204 9.73867 5.27335 8.5963 5.2377C7.5192 5.20312 6.5479 5.97018 6.33631 7.01921C6.28904 7.25257 6.29354 7.49673 6.34982 7.70632C6.45449 8.10605 6.89568 8.38586 7.33687 8.32969C7.79495 8.27135 8.11234 7.95912 8.18662 7.49457C8.2035 7.38761 8.22714 7.26877 8.27441 7.19855C8.35319 7.07863 8.52764 7.02785 8.68746 7.07863C8.85291 7.13157 8.95195 7.27093 8.95308 7.45135C8.95645 8.11253 8.95533 8.77371 8.9542 9.43381V9.70931H8.81464C8.50963 9.70931 8.20688 9.70823 7.90525 9.71039C7.37401 9.71363 6.96884 10.0939 6.96208 10.5941C6.95533 11.1116 7.35375 11.5103 7.88836 11.52C8.15285 11.5243 8.42072 11.5243 8.67958 11.5222C8.77075 11.5222 8.86304 11.5211 8.9542 11.5211C8.9542 11.6918 8.95308 11.8625 8.95308 12.031C8.95083 12.6663 8.9497 13.2659 8.95758 13.8784C8.95871 13.9422 8.95871 14.0059 8.95983 14.0696C8.96208 14.4294 8.96433 14.801 9.0555 15.1619C9.42353 16.6214 10.4016 17.5441 11.8839 17.8304C12.145 17.8811 12.4005 17.906 12.6492 17.906C13.7229 17.906 14.6706 17.4382 15.4224 16.5296C16.0223 15.8047 16.3025 14.4834 16.0887 13.389Z" fill="#FF7F7F"/>
</svg>
