<svg width="21" height="23" viewBox="0 0 21 23" fill="none" xmlns="http://www.w3.org/2000/svg">
<path d="M18.7319 6.71184L10.2319 11.4341M10.2319 11.4341L1.73192 6.71184M10.2319 11.4341L10.2319 20.9341M19.232 15.4926V7.37554C19.232 7.0329 19.2319 6.86157 19.1815 6.70878C19.1368 6.5736 19.0638 6.44952 18.9673 6.34483C18.8583 6.22649 18.7085 6.14329 18.409 5.97689L11.009 1.86578C10.7254 1.70822 10.5836 1.62944 10.4334 1.59855C10.3005 1.57122 10.1634 1.57122 10.0305 1.59855C9.88033 1.62944 9.73853 1.70822 9.45492 1.86578L2.05492 5.97689C1.7554 6.14329 1.60563 6.22649 1.49658 6.34483C1.40011 6.44952 1.3271 6.5736 1.28243 6.70878C1.23195 6.86158 1.23195 7.0329 1.23195 7.37554V15.4926C1.23195 15.8353 1.23195 16.0066 1.28243 16.1594C1.3271 16.2946 1.40011 16.4187 1.49658 16.5234C1.60563 16.6417 1.7554 16.7249 2.05492 16.8913L9.45492 21.0024C9.73853 21.16 9.88033 21.2387 10.0305 21.2696C10.1634 21.297 10.3005 21.297 10.4334 21.2696C10.5836 21.2387 10.7254 21.16 11.009 21.0024L18.409 16.8913C18.7085 16.7249 18.8583 16.6417 18.9673 16.5234C19.0638 16.4187 19.1368 16.2946 19.1815 16.1594C19.2319 16.0066 19.232 15.8353 19.232 15.4926Z" stroke="#8750A0" stroke-width="2" stroke-linecap="round" stroke-linejoin="round"/>
</svg>
