<svg width="19" height="23" viewBox="0 0 19 23" fill="none" xmlns="http://www.w3.org/2000/svg">
<path d="M11.2319 10.0264H5.23195M7.23195 14.0264H5.23195M13.2319 6.02644H5.23195M17.2319 5.82644V16.2264C17.2319 17.9066 17.2319 18.7467 16.905 19.3884C16.6173 19.9529 16.1584 20.4118 15.5939 20.6995C14.9522 21.0264 14.1121 21.0264 12.4319 21.0264H6.03195C4.35179 21.0264 3.51171 21.0264 2.86998 20.6995C2.30549 20.4118 1.84655 19.9529 1.55893 19.3884C1.23195 18.7467 1.23195 17.9066 1.23195 16.2264V5.82644C1.23195 4.14629 1.23195 3.30621 1.55893 2.66447C1.84655 2.09999 2.30549 1.64104 2.86998 1.35342C3.51171 1.02644 4.35179 1.02644 6.03195 1.02644H12.4319C14.1121 1.02644 14.9522 1.02644 15.5939 1.35342C16.1584 1.64104 16.6173 2.09999 16.905 2.66447C17.2319 3.30621 17.2319 4.14629 17.2319 5.82644Z" stroke="#446FB6" stroke-width="2" stroke-linecap="round" stroke-linejoin="round"/>
</svg>
