<svg width="23" height="23" viewBox="0 0 23 23" fill="none" xmlns="http://www.w3.org/2000/svg">
<path d="M4.26514 13.1795H17.4009C18.4137 13.1795 18.9201 13.1795 19.3232 12.9907C19.6784 12.8243 19.9768 12.5573 20.1813 12.2227C20.4135 11.8428 20.4694 11.3395 20.5813 10.3329L21.1663 5.06785C21.2005 4.76039 21.2175 4.60666 21.1681 4.48766C21.1247 4.38316 21.0471 4.29648 20.948 4.24178C20.8352 4.1795 20.6805 4.1795 20.3712 4.1795H3.76514M1.265 1.1795H2.51344C2.77806 1.1795 2.91037 1.1795 3.01389 1.22983C3.10502 1.27413 3.18054 1.34508 3.23044 1.43327C3.28712 1.53344 3.29537 1.6655 3.31188 1.9296L4.21812 16.4294C4.23463 16.6935 4.24288 16.8256 4.29956 16.9257C4.34946 17.0139 4.42498 17.0849 4.51611 17.1292C4.61963 17.1795 4.75194 17.1795 5.01656 17.1795H18.265M6.765 20.6795H6.775M15.765 20.6795H15.775M7.265 20.6795C7.265 20.9556 7.04114 21.1795 6.765 21.1795C6.48886 21.1795 6.265 20.9556 6.265 20.6795C6.265 20.4034 6.48886 20.1795 6.765 20.1795C7.04114 20.1795 7.265 20.4034 7.265 20.6795ZM16.265 20.6795C16.265 20.9556 16.0411 21.1795 15.765 21.1795C15.4889 21.1795 15.265 20.9556 15.265 20.6795C15.265 20.4034 15.4889 20.1795 15.765 20.1795C16.0411 20.1795 16.265 20.4034 16.265 20.6795Z" stroke="#36CC8B" stroke-width="2" stroke-linecap="round" stroke-linejoin="round"/>
</svg>
