<svg width="23" height="21" viewBox="0 0 23 21" fill="none" xmlns="http://www.w3.org/2000/svg">
<path d="M21.2319 19.1454V17.1454C21.2319 15.2816 19.9572 13.7155 18.2319 13.2715M14.7319 1.43621C16.1979 2.02959 17.2319 3.46676 17.2319 5.14545C17.2319 6.82414 16.1979 8.2613 14.7319 8.85469M16.2319 19.1454C16.2319 17.2817 16.2319 16.3498 15.9275 15.6147C15.5215 14.6346 14.7428 13.8559 13.7627 13.4499C13.0276 13.1454 12.0957 13.1454 10.2319 13.1454H7.23195C5.36818 13.1454 4.4363 13.1454 3.70122 13.4499C2.7211 13.8559 1.94241 14.6346 1.53643 15.6147C1.23195 16.3498 1.23195 17.2817 1.23195 19.1454M12.7319 5.14545C12.7319 7.35459 10.9411 9.14545 8.73195 9.14545C6.52281 9.14545 4.73195 7.35459 4.73195 5.14545C4.73195 2.93631 6.52281 1.14545 8.73195 1.14545C10.9411 1.14545 12.7319 2.93631 12.7319 5.14545Z" stroke="#42B8EA" stroke-width="2" stroke-linecap="round" stroke-linejoin="round"/>
</svg>
