<svg width="19" height="22" viewBox="0 0 19 22" fill="none" xmlns="http://www.w3.org/2000/svg">
<path d="M11.2319 1.26894V5.39948C11.2319 5.95953 11.2319 6.23955 11.3409 6.45347C11.4368 6.64163 11.5898 6.79461 11.778 6.89048C11.9919 6.99948 12.2719 6.99948 12.8319 6.99948H16.9625M11.2319 15.9994H5.23195M13.2319 11.9994H5.23195M17.2319 8.98763V16.1994C17.2319 17.8796 17.2319 18.7196 16.905 19.3614C16.6173 19.9259 16.1584 20.3848 15.5939 20.6724C14.9522 20.9994 14.1121 20.9994 12.4319 20.9994H6.03195C4.35179 20.9994 3.51171 20.9994 2.86998 20.6724C2.30549 20.3848 1.84655 19.9259 1.55893 19.3614C1.23195 18.7196 1.23195 17.8796 1.23195 16.1994V5.79941C1.23195 4.11925 1.23195 3.27917 1.55893 2.63743C1.84655 2.07295 2.30549 1.61401 2.86998 1.32639C3.51171 0.999405 4.35179 0.999405 6.03195 0.999405H9.24372C9.9775 0.999405 10.3444 0.999405 10.6896 1.0823C10.9958 1.15579 11.2884 1.277 11.5568 1.44148C11.8596 1.62701 12.119 1.88644 12.6378 2.40529L15.8261 5.59352C16.3449 6.11237 16.6043 6.3718 16.7899 6.67455C16.9544 6.94297 17.0756 7.2356 17.1491 7.54171C17.2319 7.88697 17.2319 8.25386 17.2319 8.98763Z" stroke="#9ACB3D" stroke-width="2" stroke-linecap="round" stroke-linejoin="round"/>
</svg>
