<svg width="21" height="23" viewBox="0 0 21 23" fill="none" xmlns="http://www.w3.org/2000/svg">
<path d="M20.9485 18.255C20.8653 17.9538 20.5974 17.8076 20.1123 17.5423L20.1009 17.5362C20.0125 17.488 19.9144 17.4337 19.8067 17.3742C19.6535 17.2884 19.6124 17.2367 19.5957 17.0135C19.5695 16.651 19.65 16.5065 19.9433 16.3935C20.079 16.341 20.1911 16.2701 20.3014 16.2009C20.3619 16.1633 20.4179 16.1274 20.4731 16.0993C20.7173 15.9741 20.8723 15.8043 20.9319 15.5968C20.994 15.3796 20.9502 15.1493 20.797 14.891C20.3724 14.1739 19.995 13.5199 19.6439 12.8912C19.5117 12.6566 19.3418 12.5103 19.1369 12.456C18.9276 12.4009 18.7096 12.4438 18.4706 12.5874C18.383 12.6399 18.2946 12.6881 18.1992 12.7406C18.0328 12.8325 17.8612 12.9271 17.6957 13.0427C17.6292 13.09 17.6204 13.0952 17.4111 13.0068C17.0486 12.8536 16.9471 12.6653 17.0101 12.2599C17.0539 11.9797 17.0478 11.7459 16.99 11.5446C16.9208 11.3011 16.6975 10.9991 16.3709 10.9115C16.3149 10.8958 16.3088 10.894 13.8282 10.88C13.5612 10.88 13.3493 10.9579 13.1961 11.1111C13.0437 11.2644 12.9667 11.478 12.9684 11.7451C12.9684 11.8029 12.9693 11.8598 12.9702 11.9176L12.971 11.9543C12.9746 12.2109 12.9772 12.4753 12.9623 12.7266C12.9614 12.7397 12.9474 12.773 12.9369 12.7879C12.5762 13.0637 12.4763 13.1372 11.9238 12.8194C11.9168 12.815 11.6489 12.6557 11.515 12.5751C11.2908 12.4403 11.0754 12.3983 10.874 12.4517C10.6718 12.5042 10.5037 12.646 10.3741 12.8728C9.91438 13.6775 9.53263 14.3377 9.17189 14.9506C9.0423 15.1721 9.00465 15.384 9.05894 15.581C9.11498 15.7841 9.2577 15.947 9.49673 16.0792C9.76466 16.2272 10.0448 16.39 10.3522 16.5774C10.3942 16.6028 10.4178 16.6186 10.4292 16.6273C10.5124 16.9128 10.3592 17.2674 10.0781 17.4294L10.0151 17.4653C9.95991 17.4968 9.89775 17.5318 9.83471 17.573C9.79093 17.6019 9.73576 17.6316 9.67622 17.664C9.49761 17.7603 9.27521 17.8812 9.16138 18.1044C9.06769 18.2874 9.05456 18.4249 9.73401 19.7558C10.0527 20.3801 10.3837 20.9851 10.3933 21.0017C10.5203 21.2136 10.684 21.3467 10.8802 21.3958C11.0772 21.4457 11.2864 21.4054 11.5009 21.2767C11.5938 21.2206 11.6892 21.1672 11.7873 21.1121C11.9589 21.0158 12.1357 20.9168 12.3082 20.7995C12.3713 20.7566 12.3809 20.7496 12.6033 20.8415C12.9483 20.9851 13.0393 21.1585 12.9781 21.5577C12.9527 21.725 12.9597 21.8808 12.9667 22.0323L12.9675 22.0446C12.9693 22.0787 12.971 22.112 12.9719 22.1461C12.9868 22.6496 13.2854 22.9499 13.7766 22.9499C14.6907 22.9464 15.4919 22.9464 16.2335 22.9499C16.7124 22.9499 17.0049 22.6636 17.0171 22.1855L17.0215 22.0376C17.0294 21.7749 17.0373 21.5026 17.0145 21.2294C17.0075 21.1357 17.0049 21.1103 17.2098 20.9545C17.511 20.7259 17.7053 20.7321 18.0092 20.9807C18.1212 21.0718 18.2429 21.1348 18.3506 21.1917C18.4032 21.2189 18.4531 21.2452 18.4986 21.2723C18.7158 21.4054 18.9276 21.4474 19.1282 21.3958C19.333 21.3432 19.5047 21.1988 19.6386 20.965C19.7621 20.7487 19.8864 20.5342 20.0107 20.3188L20.0318 20.282C20.1631 20.0552 20.2936 19.8293 20.4231 19.6017C20.4879 19.4887 20.5466 19.3872 20.6035 19.2909C20.8793 18.8163 21.0326 18.5554 20.9485 18.255ZM15.5812 20.7986C15.5934 21.0236 15.5917 21.2522 15.589 21.4973H14.4377C14.4455 21.2338 14.4525 20.9615 14.4105 20.6892C14.3632 20.3888 14.1277 20.1664 13.9044 19.9887L13.2092 19.5089L13.1978 19.5019C12.5875 19.1227 12.2119 19.121 11.7085 19.4984C11.5999 19.5798 11.4703 19.6498 11.3214 19.7286C11.1411 19.4178 10.9625 19.1105 10.7803 18.797L10.7331 18.7156H10.7339C10.9441 18.5886 11.142 18.4687 11.3433 18.3619C11.747 18.1473 11.8722 17.9083 11.8573 17.3812L11.8503 16.3778L11.8485 16.3506C11.8232 16.1029 11.7102 15.7719 11.472 15.5854C11.2444 15.405 11.001 15.2702 10.7427 15.1266L10.7383 15.1239L11.3153 14.1232L11.332 14.1328C11.5482 14.2545 11.7522 14.3692 11.9536 14.4944C12.3152 14.7186 12.6646 14.7028 13.0218 14.4445C13.2574 14.2729 13.5332 14.1153 13.8668 13.9612C14.2573 13.7817 14.4473 13.4761 14.4333 13.0523C14.4254 12.8334 14.4271 12.6128 14.4289 12.3772H15.5882C15.5908 12.5918 15.5934 12.8115 15.5812 13.0243C15.5558 13.4752 15.7467 13.7852 16.1652 13.9726C16.469 14.1091 16.7378 14.2632 16.9637 14.4314C17.3236 14.701 17.6983 14.7177 18.0775 14.4804C18.2666 14.3622 18.4671 14.2466 18.6807 14.1258L18.6886 14.1214L19.2753 15.1345L19.2647 15.1406C19.0467 15.2702 18.8418 15.3919 18.6352 15.4987C18.2587 15.6948 18.095 16.0039 18.1335 16.4435C18.1458 16.5827 18.1414 16.7289 18.137 16.8847C18.1309 17.0818 18.1247 17.2866 18.1536 17.4968C18.1843 17.7314 18.3112 18.079 18.5652 18.2848C18.7814 18.459 19.0143 18.586 19.2665 18.7226C19.0747 19.0553 18.8874 19.3828 18.6921 19.7216L18.6737 19.7111C18.4557 19.5894 18.2508 19.4747 18.0486 19.3521C17.6729 19.1245 17.3236 19.1446 16.9795 19.4126C16.7518 19.5886 16.4804 19.7462 16.1932 19.867C16.033 19.9318 15.5461 20.1358 15.5812 20.7986Z" fill="#72C056"/>
<path d="M17.2741 16.9201C17.2721 15.6814 16.2601 14.6707 15.0201 14.6674C15.0155 14.6674 15.0109 14.6674 15.0063 14.6674C14.3968 14.6674 13.8269 14.902 13.3986 15.3289C12.9737 15.7526 12.7398 16.3192 12.7404 16.9241C12.7404 18.1555 13.7478 19.1675 14.9865 19.18H15.0109C15.6085 19.18 16.1738 18.9461 16.6027 18.5211C17.0362 18.0922 17.2747 17.5236 17.2741 16.9201ZM14.1926 16.0669C14.4126 15.8541 14.6973 15.7368 14.9957 15.7368H15.0148C15.6684 15.7473 16.1777 16.2744 16.1744 16.9366C16.1724 17.2548 16.0506 17.5493 15.8305 17.7654C15.6118 17.9802 15.3166 18.0981 14.9977 18.0981H14.9904C14.6775 18.0962 14.3836 17.9716 14.1636 17.747C13.9429 17.5216 13.8229 17.2245 13.8276 16.9102C13.8322 16.5907 13.962 16.2909 14.1926 16.0669Z" fill="#72C056"/>
<path d="M6.99242 14.38C5.59685 14.38 4.89907 14.38 4.33127 14.5522C3.05287 14.94 2.05246 15.9404 1.66466 17.2188C1.49242 17.7866 1.49242 18.4844 1.49242 19.88M13.9924 6.37999C13.9924 8.86527 11.9777 10.88 9.49242 10.88C7.00713 10.88 4.99242 8.86527 4.99242 6.37999C4.99242 3.89471 7.00713 1.87999 9.49242 1.87999C11.9777 1.87999 13.9924 3.89471 13.9924 6.37999Z" stroke="#72C056" stroke-width="2" stroke-linecap="round" stroke-linejoin="round"/>
</svg>
